<svg xmlns="http://www.w3.org/2000/svg" xmlns:xlink="http://www.w3.org/1999/xlink" width="145" zoomAndPan="magnify" viewBox="0 0 108.75 44.999999" height="60" preserveAspectRatio="xMidYMid meet" version="1.0"><defs><clipPath id="17283d249f"><path d="M 0 0.0507812 L 108.5 0.0507812 L 108.5 44.949219 L 0 44.949219 Z M 0 0.0507812 " clip-rule="nonzero"/></clipPath><clipPath id="c4a3e8eaf0"><path d="M 18.832031 1.398438 L 89.917969 1.398438 L 89.917969 43.300781 L 18.832031 43.300781 Z M 18.832031 1.398438 " clip-rule="nonzero"/></clipPath><clipPath id="6cefc9262b"><path d="M 32.128906 1.398438 L 72.535156 1.398438 L 72.535156 34 L 32.128906 34 Z M 32.128906 1.398438 " clip-rule="nonzero"/></clipPath><clipPath id="e78d04bca1"><path d="M 49.019531 41.832031 L 50.707031 41.832031 L 50.707031 43.300781 L 49.019531 43.300781 Z M 49.019531 41.832031 " clip-rule="nonzero"/></clipPath><clipPath id="d02421012c"><path d="M 62 41 L 64 41 L 64 43.300781 L 62 43.300781 Z M 62 41 " clip-rule="nonzero"/></clipPath><clipPath id="7eb1ba3f38"><path d="M 65 26 L 72.535156 26 L 72.535156 38 L 65 38 Z M 65 26 " clip-rule="nonzero"/></clipPath></defs><g clip-path="url(#17283d249f)"><path fill="#ffffff" d="M 0 0.0507812 L 108.5 0.0507812 L 108.5 44.949219 L 0 44.949219 Z M 0 0.0507812 " fill-opacity="1" fill-rule="nonzero"/><path fill="#e2eff6" d="M 0 0.0507812 L 108.5 0.0507812 L 108.5 44.949219 L 0 44.949219 Z M 0 0.0507812 " fill-opacity="1" fill-rule="nonzero"/></g><g clip-path="url(#c4a3e8eaf0)"><path fill="#ffffff" d="M 89.335938 28.171875 L 83.457031 31.5 L 87.148438 39.480469 L 78.078125 37.316406 L 74.386719 42.640625 L 68.679688 38.652344 L 64.632812 43.300781 L 59.59375 39.648438 L 54.550781 43.132812 L 49.511719 39.3125 L 43.804688 42.964844 L 39.105469 38.804688 L 33.726562 42.457031 L 30.191406 37.300781 L 22.453125 39.957031 L 25.136719 32.160156 L 18.917969 28.339844 L 24.300781 23.351562 L 19.257812 18.519531 L 24.808594 14.195312 L 21.773438 6.214844 L 30.515625 8.210938 L 33.199219 2.5625 L 39.589844 5.890625 L 44.289062 1.566406 L 49.839844 6.382812 L 55.21875 1.398438 L 60.429688 6.046875 L 65.640625 2.058594 L 70.511719 6.382812 L 77.238281 2.5625 L 79.597656 8.714844 L 88.496094 6.890625 L 84.609375 14.65625 L 89.832031 18.859375 L 84.453125 23.015625 Z M 89.335938 28.171875 " fill-opacity="1" fill-rule="nonzero"/></g><g clip-path="url(#6cefc9262b)"><path fill="#ff241c" d="M 45.960938 9.515625 L 49.054688 1.394531 L 54.277344 8.9375 L 57.371094 4.554688 L 58.144531 8.550781 L 69.101562 3.652344 L 62.890625 15.542969 L 72.292969 17.699219 L 62.914062 21.566406 L 63.945312 23.5 L 59.5625 23.757812 L 57.113281 29.878906 L 53.179688 24.015625 L 45.574219 33.808594 L 46.21875 24.144531 L 40.652344 31.007812 L 40.652344 24.335938 L 34.164062 24.660156 L 39.6875 18.441406 L 32.167969 15.703125 L 40.160156 12.929688 L 36.453125 2.75 L 45.960938 9.515625 " fill-opacity="1" fill-rule="nonzero"/></g><path fill="#293dcf" d="M 35.238281 9.742188 L 65.695312 5.972656 L 63.234375 24.132812 L 60.28125 24.53125 L 62.988281 28.398438 L 54.652344 25.429688 L 38.601562 27.199219 L 35.238281 9.742188 " fill-opacity="1" fill-rule="nonzero"/><g clip-path="url(#e78d04bca1)"><path fill="#000000" d="M 49.269531 43.019531 C 49.488281 43.296875 49.921875 43.394531 50.214844 43.199219 C 50.460938 43.035156 50.5625 42.730469 50.644531 42.445312 C 50.683594 42.3125 50.722656 42.15625 50.644531 42.039062 C 50.574219 41.925781 50.425781 41.894531 50.292969 41.878906 C 49.996094 41.847656 49.433594 41.761719 49.210938 42.015625 C 48.992188 42.261719 49.089844 42.789062 49.269531 43.019531 " fill-opacity="1" fill-rule="nonzero"/></g><g clip-path="url(#d02421012c)"><path fill="#000000" d="M 62.355469 42.722656 C 62.460938 42.96875 62.671875 43.183594 62.933594 43.21875 C 63.199219 43.25 63.464844 43.085938 63.601562 42.859375 C 63.742188 42.628906 63.769531 42.347656 63.738281 42.082031 C 63.410156 41.914062 62.867188 41.765625 62.5 41.894531 C 62.121094 42.03125 62.203125 42.355469 62.355469 42.722656 " fill-opacity="1" fill-rule="nonzero"/></g><g clip-path="url(#7eb1ba3f38)"><path fill="#000000" d="M 69.582031 35.683594 C 69.414062 35.570312 69.167969 35.574219 69.050781 35.351562 C 69.039062 35.328125 69.050781 35.289062 69.070312 35.28125 C 69.078125 35.28125 69.082031 35.28125 69.089844 35.277344 C 69.101562 35.226562 69.144531 35.191406 69.195312 35.222656 C 69.234375 35.25 69.273438 35.277344 69.3125 35.304688 C 69.417969 35.355469 69.480469 35.421875 69.535156 35.515625 C 69.5625 35.546875 69.59375 35.574219 69.621094 35.605469 C 69.652344 35.640625 69.613281 35.703125 69.582031 35.683594 Z M 70.589844 33.59375 C 70.429688 33.710938 70.222656 33.757812 70.046875 33.777344 C 69.929688 33.789062 69.671875 33.8125 69.621094 33.613281 C 69.53125 33.273438 70.019531 33.359375 70.316406 33.4375 C 70.402344 33.445312 70.484375 33.457031 70.558594 33.464844 C 70.605469 33.46875 70.640625 33.558594 70.589844 33.59375 Z M 70.417969 31.339844 C 70.367188 31.378906 69.929688 31.679688 69.882812 31.625 C 69.75 31.445312 70.191406 31.132812 70.257812 31.09375 C 70.394531 31.007812 70.5625 30.96875 70.734375 30.976562 C 70.652344 31.113281 70.550781 31.230469 70.417969 31.339844 Z M 69.101562 29.617188 C 68.355469 29.875 68.628906 29.355469 68.855469 29.28125 C 68.925781 29.246094 68.996094 29.214844 69.066406 29.183594 C 69.253906 29.097656 69.441406 29.019531 69.636719 28.984375 C 69.527344 29.316406 69.339844 29.578125 69.101562 29.617188 Z M 71.589844 33.558594 C 72.015625 33.050781 72.28125 32.367188 72.144531 31.617188 C 72.035156 31.03125 71.746094 30.65625 71.390625 30.449219 C 71.421875 29.75 71.164062 29.035156 70.699219 28.671875 C 70.570312 28.566406 70.410156 28.488281 70.238281 28.433594 C 70.257812 28.238281 70.25 28.042969 70.203125 27.851562 C 69.886719 26.441406 68.75 26.699219 67.9375 27.019531 C 67.859375 26.902344 67.773438 26.824219 67.617188 26.703125 C 67.410156 26.542969 67.203125 26.832031 67.25 27.121094 C 67.320312 27.53125 67.316406 27.515625 67.507812 27.855469 C 67.625 28.066406 67.828125 28.167969 68.003906 28.011719 C 68.355469 27.699219 68.796875 27.363281 69.230469 27.449219 C 69.585938 27.519531 69.734375 27.917969 69.734375 28.351562 C 69.148438 28.335938 68.523438 28.566406 68.183594 29.0625 C 67.707031 29.757812 68.339844 30.429688 68.875 30.332031 C 69.363281 30.238281 69.871094 29.683594 70.109375 29.007812 C 70.570312 29.152344 70.976562 29.621094 70.929688 30.289062 C 70.648438 30.242188 70.359375 30.277344 70.09375 30.390625 C 69.640625 30.582031 68.519531 31.539062 69.296875 32.253906 C 69.835938 32.746094 70.886719 31.964844 71.1875 31.320312 C 71.207031 31.273438 71.226562 31.222656 71.246094 31.175781 C 71.820312 31.710938 71.652344 32.648438 71.117188 33.132812 C 71.085938 33.160156 70.617188 32.90625 70.539062 32.886719 C 70.328125 32.835938 70.109375 32.832031 69.890625 32.859375 C 69.644531 32.890625 68.914062 32.929688 68.953125 33.464844 C 69.050781 34.710938 70.230469 34.683594 71.136719 33.992188 C 71.390625 34.273438 71.515625 34.765625 71.335938 35.207031 C 71.160156 35.644531 70.589844 35.71875 70.207031 35.6875 C 70.007812 35.347656 69.730469 35.066406 69.5 34.878906 C 69.136719 34.582031 68.375 34.527344 68.601562 35.457031 C 68.734375 36.015625 69.296875 36.289062 69.792969 36.402344 C 70.082031 36.808594 69.832031 36.96875 69.578125 36.945312 C 69.464844 37.050781 69.050781 36.9375 68.933594 36.90625 C 68.449219 36.78125 68.058594 36.460938 67.6875 36.03125 C 67.167969 35.4375 66.625 34.703125 65.921875 34.601562 C 65.238281 34.503906 65.140625 35.824219 65.839844 35.898438 C 66.3125 35.953125 66.667969 35.980469 67.089844 36.414062 C 67.273438 36.605469 67.429688 36.84375 67.621094 37.027344 C 67.972656 37.378906 68.371094 37.621094 68.800781 37.71875 C 69.363281 37.851562 70.273438 37.824219 70.457031 36.890625 C 70.484375 36.746094 70.488281 36.605469 70.476562 36.464844 C 71.96875 36.359375 72.492188 34.671875 71.589844 33.558594 " fill-opacity="1" fill-rule="nonzero"/></g><path fill="#000000" d="M 54.894531 31.066406 C 54.433594 30.339844 54.035156 31.578125 54.1875 32.289062 C 54.242188 32.546875 54.375 32.734375 54.527344 32.734375 C 54.960938 32.742188 55.210938 31.558594 54.894531 31.066406 " fill-opacity="1" fill-rule="nonzero"/><path fill="#000000" d="M 59.292969 31.523438 C 59.292969 31.363281 59.28125 31.207031 59.261719 31.042969 C 59.21875 30.726562 58.808594 30.59375 58.644531 30.84375 C 58.542969 30.996094 58.484375 31.179688 58.472656 31.359375 C 58.425781 31.652344 58.464844 31.953125 58.585938 32.226562 C 58.726562 32.542969 59.191406 32.492188 59.25 32.121094 C 59.269531 31.992188 59.285156 31.867188 59.289062 31.742188 C 59.308594 31.671875 59.3125 31.597656 59.292969 31.523438 " fill-opacity="1" fill-rule="nonzero"/><path fill="#dcaa00" d="M 67 38.011719 C 66.78125 37.207031 66.402344 36.363281 65.925781 35.554688 C 65.726562 35.015625 65.460938 34.492188 65.230469 33.96875 C 65 33.441406 64.816406 32.792969 64.4375 32.351562 C 64.113281 31.976562 63.632812 31.84375 63.15625 31.796875 C 63.039062 31.785156 62.628906 31.808594 62.59375 31.617188 C 62.5 31.15625 62.726562 30.390625 62.28125 30.214844 C 62.027344 30.113281 61.417969 30.125 61.210938 30.332031 C 60.996094 30.550781 61.292969 31.8125 60.808594 31.863281 C 58.773438 32.074219 57.292969 31.960938 55.25 31.894531 C 54.632812 31.871094 53.894531 31.753906 53.277344 31.714844 C 52.730469 31.683594 52.890625 30.957031 52.902344 30.652344 C 52.921875 30.136719 52.347656 30.203125 52.171875 30.203125 C 51.863281 30.199219 51.613281 30.113281 51.375 30.4375 C 51.164062 30.726562 51.246094 31.3125 51.183594 31.648438 C 51.179688 31.683594 51.140625 31.722656 51.105469 31.726562 C 50.347656 31.839844 49.207031 31.804688 48.898438 32.699219 C 48.410156 34.113281 47.839844 35.5 47.433594 36.941406 C 47.179688 37.832031 46.976562 38.738281 46.734375 39.628906 C 46.484375 40.550781 46.03125 41.789062 47.25 42.234375 C 48.113281 42.546875 49.074219 42.246094 49.964844 42.292969 C 51.761719 42.386719 61.285156 42.160156 64.34375 42.089844 C 65.28125 42.066406 66.355469 41.980469 66.917969 41.230469 C 67.488281 40.476562 67.242188 38.925781 67 38.011719 " fill-opacity="1" fill-rule="nonzero"/><path fill="#dcaa00" d="M 62.296875 13.472656 C 62.136719 13.265625 61.9375 13.050781 61.617188 13.058594 C 61.210938 13.070312 60.828125 13.421875 60.453125 13.675781 C 59.242188 14.503906 57.601562 14.351562 57.039062 13.433594 C 56.480469 12.519531 56.976562 11.042969 58.078125 10.085938 C 59.175781 9.132812 60.742188 8.722656 61.933594 8.980469 C 63.109375 9.230469 63.890625 10.03125 64.578125 10.839844 C 66.71875 13.339844 68.441406 16.144531 70.019531 19.023438 C 70.464844 19.835938 70.90625 20.664062 71.050781 21.621094 C 71.191406 22.574219 71.011719 23.679688 70.316406 24.65625 C 69.714844 25.496094 68.746094 26.183594 67.738281 26.488281 C 66.734375 26.796875 65.707031 26.71875 64.992188 26.289062 C 64.546875 26.015625 64.214844 25.597656 64.175781 25.066406 C 64.136719 24.539062 64.425781 23.894531 64.976562 23.488281 C 65.574219 23.042969 66.4375 22.882812 66.832031 22.296875 C 67.167969 21.804688 66.96875 21.296875 66.757812 20.882812 C 65.457031 18.34375 64.066406 15.707031 62.296875 13.472656 " fill-opacity="1" fill-rule="nonzero"/><path fill="#ff241c" d="M 58.613281 14.480469 C 57.828125 14.324219 57.121094 14.011719 56.6875 13.476562 C 56.257812 12.941406 56.125 12.164062 56.460938 11.367188 C 57.140625 9.757812 59.417969 9.007812 60.746094 10.21875 C 62.515625 11.828125 60.359375 15.335938 58.007812 14.242188 L 58.613281 14.480469 " fill-opacity="1" fill-rule="nonzero"/><path fill="#ff241c" d="M 64.972656 26.324219 C 64.082031 26.0625 63.703125 25.082031 64.136719 24.15625 C 64.566406 23.226562 65.757812 22.476562 66.761719 22.496094 C 67.539062 22.511719 68.117188 22.921875 68.621094 23.351562 C 68.964844 23.640625 69.296875 23.953125 69.464844 24.363281 C 69.632812 24.773438 69.613281 25.304688 69.292969 25.769531 C 68.386719 27.066406 65.371094 27.429688 64.140625 25.863281 L 64.972656 26.324219 " fill-opacity="1" fill-rule="nonzero"/><path fill="#000000" d="M 58.496094 10.699219 C 58.460938 10.695312 58.421875 10.695312 58.382812 10.699219 C 57.8125 10.734375 57.851562 11.308594 58.257812 11.394531 C 58.875 11.523438 59.1875 10.746094 58.496094 10.699219 " fill-opacity="1" fill-rule="nonzero"/><path fill="#000000" d="M 66.859375 24.101562 C 66.820312 24.097656 66.785156 24.097656 66.746094 24.101562 C 66.175781 24.140625 66.214844 24.710938 66.617188 24.796875 C 67.238281 24.929688 67.550781 24.148438 66.859375 24.101562 " fill-opacity="1" fill-rule="nonzero"/><path fill="#000000" d="M 57.898438 11.851562 C 57.867188 11.847656 57.832031 11.847656 57.796875 11.851562 C 57.300781 11.890625 57.3125 12.386719 57.613281 12.511719 C 58.171875 12.746094 58.664062 11.898438 57.898438 11.851562 " fill-opacity="1" fill-rule="nonzero"/><path fill="#000000" d="M 65.472656 23.984375 C 65.4375 23.980469 65.402344 23.980469 65.371094 23.984375 C 64.871094 24.023438 64.886719 24.519531 65.1875 24.644531 C 65.742188 24.878906 66.238281 24.03125 65.472656 23.984375 " fill-opacity="1" fill-rule="nonzero"/><path fill="#000000" d="M 59.078125 11.566406 C 59.046875 11.5625 59.011719 11.5625 58.976562 11.566406 C 58.480469 11.605469 58.492188 12.101562 58.792969 12.226562 C 59.351562 12.460938 59.84375 11.613281 59.078125 11.566406 " fill-opacity="1" fill-rule="nonzero"/><path fill="#000000" d="M 66.738281 22.972656 C 66.703125 22.972656 66.667969 22.972656 66.636719 22.972656 C 66.136719 23.015625 66.152344 23.507812 66.453125 23.636719 C 67.007812 23.867188 67.503906 23.019531 66.738281 22.972656 " fill-opacity="1" fill-rule="nonzero"/><path fill="#000000" d="M 60.070312 12.199219 C 60.039062 12.199219 60.003906 12.199219 59.96875 12.199219 C 59.472656 12.242188 59.484375 12.734375 59.785156 12.859375 C 60.34375 13.09375 60.835938 12.246094 60.070312 12.199219 " fill-opacity="1" fill-rule="nonzero"/><path fill="#000000" d="M 58.734375 12.671875 C 58.699219 12.671875 58.664062 12.671875 58.632812 12.675781 C 58.132812 12.714844 58.148438 13.207031 58.449219 13.335938 C 59.003906 13.566406 59.5 12.722656 58.734375 12.671875 " fill-opacity="1" fill-rule="nonzero"/><path fill="#000000" d="M 68.0625 23.847656 C 68.027344 23.84375 67.992188 23.84375 67.960938 23.847656 C 67.460938 23.886719 67.476562 24.382812 67.777344 24.507812 C 68.332031 24.742188 68.828125 23.894531 68.0625 23.847656 " fill-opacity="1" fill-rule="nonzero"/><path fill="#000000" d="M 65.910156 25.070312 C 65.878906 25.070312 65.84375 25.070312 65.808594 25.070312 C 65.3125 25.113281 65.324219 25.605469 65.625 25.730469 C 66.183594 25.964844 66.675781 25.117188 65.910156 25.070312 " fill-opacity="1" fill-rule="nonzero"/><path fill="#000000" d="M 60.109375 10.714844 C 60.074219 10.710938 60.039062 10.710938 60.003906 10.714844 C 59.507812 10.753906 59.523438 11.25 59.824219 11.375 C 60.378906 11.609375 60.871094 10.761719 60.109375 10.714844 " fill-opacity="1" fill-rule="nonzero"/><path fill="#000000" d="M 67.242188 25.1875 C 67.210938 25.183594 67.175781 25.183594 67.140625 25.1875 C 66.644531 25.226562 66.65625 25.722656 66.957031 25.847656 C 67.515625 26.082031 68.007812 25.234375 67.242188 25.1875 " fill-opacity="1" fill-rule="nonzero"/><path fill="#000000" d="M 53.105469 33.914062 C 53.289062 33.695312 53.570312 33.527344 53.871094 33.53125 C 54.148438 33.535156 54.417969 33.703125 54.53125 33.941406 C 54.640625 34.179688 54.585938 34.480469 54.390625 34.664062 C 54.214844 34.828125 53.957031 34.894531 53.710938 34.910156 C 52.875 34.957031 52.5625 34.5625 53.105469 33.914062 " fill-opacity="1" fill-rule="nonzero"/><path fill="#000000" d="M 55.671875 33.964844 C 55.890625 33.757812 56.214844 33.683594 56.527344 33.660156 C 56.90625 33.636719 57.347656 33.714844 57.53125 34.027344 C 57.675781 34.277344 57.59375 34.609375 57.386719 34.816406 C 57.179688 35.023438 56.871094 35.121094 56.570312 35.140625 C 56.128906 35.167969 55.738281 35.164062 55.539062 34.792969 C 55.394531 34.523438 55.441406 34.179688 55.671875 33.964844 " fill-opacity="1" fill-rule="nonzero"/><path fill="#000000" d="M 59.402344 33.648438 C 59.714844 33.589844 60.054688 33.671875 60.292969 33.871094 C 60.722656 34.234375 60.6875 34.84375 60.378906 35.0625 C 60.269531 35.144531 60.128906 35.171875 59.992188 35.191406 C 59.5625 35.242188 58.898438 35.253906 58.675781 34.832031 C 58.414062 34.335938 58.890625 33.75 59.402344 33.648438 " fill-opacity="1" fill-rule="nonzero"/><path fill="#000000" d="M 52.914062 35.652344 C 53.113281 35.554688 53.351562 35.566406 53.574219 35.582031 C 53.890625 35.601562 54.25 35.640625 54.449219 35.875 C 54.589844 36.042969 54.617188 36.277344 54.570312 36.488281 C 54.519531 36.695312 54.40625 36.886719 54.296875 37.074219 C 54.113281 37.378906 52.648438 37.207031 52.46875 36.90625 C 52.277344 36.585938 52.585938 35.816406 52.914062 35.652344 " fill-opacity="1" fill-rule="nonzero"/><path fill="#000000" d="M 56.5 35.878906 C 57.234375 35.808594 57.65625 36.21875 57.640625 36.617188 C 57.628906 36.945312 57.320312 37.207031 56.984375 37.292969 C 56.554688 37.40625 55.605469 37.414062 55.433594 36.917969 C 55.234375 36.339844 56.011719 35.925781 56.5 35.878906 " fill-opacity="1" fill-rule="nonzero"/><path fill="#000000" d="M 59.492188 36.082031 C 59.777344 36.070312 60.191406 35.933594 60.425781 36.183594 C 60.578125 36.347656 60.664062 36.800781 60.625 37.011719 C 60.496094 37.664062 58.941406 37.621094 58.601562 37.179688 C 58.140625 36.582031 58.945312 36.109375 59.492188 36.082031 " fill-opacity="1" fill-rule="nonzero"/><path fill="#000000" d="M 53.027344 37.820312 C 53.328125 37.800781 53.644531 37.894531 53.851562 38.101562 C 54.054688 38.308594 54.125 38.636719 53.988281 38.886719 C 53.839844 39.15625 53.496094 39.289062 53.171875 39.304688 C 52.667969 39.320312 52.042969 39.257812 52.0625 38.699219 C 52.078125 38.226562 52.558594 37.855469 53.027344 37.820312 " fill-opacity="1" fill-rule="nonzero"/><path fill="#000000" d="M 55.199219 38.691406 C 55.234375 38.519531 55.335938 38.351562 55.503906 38.269531 C 55.652344 38.199219 55.785156 38.207031 56.542969 38.175781 C 56.910156 38.160156 57.347656 38.175781 57.554688 38.464844 C 57.734375 38.71875 57.625 39.085938 57.378906 39.289062 C 57.132812 39.492188 56.792969 39.5625 56.464844 39.578125 C 55.75 39.613281 55.035156 39.492188 55.199219 38.691406 " fill-opacity="1" fill-rule="nonzero"/><path fill="#000000" d="M 58.71875 38.605469 C 58.859375 38.363281 59.140625 38.210938 59.433594 38.175781 C 59.800781 38.128906 60.199219 38.277344 60.398438 38.570312 C 60.601562 38.863281 60.578125 39.285156 60.3125 39.53125 C 59.65625 40.136719 58.140625 39.578125 58.71875 38.605469 " fill-opacity="1" fill-rule="nonzero"/><path fill="#ffffff" d="M 40.949219 15.875 C 40.664062 16.277344 40.238281 16.292969 39.871094 15.949219 C 39.472656 15.574219 39.355469 14.945312 39.304688 14.421875 C 39.257812 13.90625 39.304688 13.285156 39.773438 12.96875 C 40.253906 12.644531 40.644531 12.984375 40.875 13.410156 C 40.917969 13.488281 41.03125 13.480469 41.074219 13.410156 C 41.511719 12.710938 40.472656 12.132812 39.890625 12.242188 C 38.972656 12.421875 38.59375 13.410156 38.613281 14.246094 C 38.636719 15.125 38.855469 16.148438 39.621094 16.6875 C 40.257812 17.132812 41.414062 17.03125 41.652344 16.171875 C 41.777344 15.730469 41.195312 15.535156 40.949219 15.875 " fill-opacity="1" fill-rule="nonzero"/><path fill="#ffffff" d="M 42.503906 12.253906 C 42.6875 12.230469 42.945312 12.296875 43.039062 12.34375 C 43.261719 12.449219 43.40625 12.652344 43.457031 12.894531 C 43.554688 13.355469 43.265625 13.886719 42.820312 14.0625 C 42.574219 12.542969 42.578125 12.496094 42.503906 12.253906 Z M 45.265625 15.601562 C 45.121094 14.816406 44.519531 14.214844 43.792969 14.039062 C 44.519531 13.117188 43.914062 11.722656 42.804688 11.789062 C 42.667969 11.796875 42.5 11.835938 42.359375 11.90625 C 42.273438 11.792969 42.085938 11.835938 42.042969 11.972656 C 41.847656 12.605469 42.050781 13.429688 42.140625 14.074219 C 42.191406 14.421875 42.253906 14.769531 42.324219 15.113281 C 42.378906 15.410156 42.472656 15.707031 42.535156 16.003906 C 42.5 16.0625 42.488281 16.136719 42.503906 16.21875 C 42.53125 16.363281 42.621094 16.429688 42.75 16.476562 C 42.878906 16.523438 43.015625 16.441406 43.085938 16.339844 C 43.257812 16.09375 43.109375 15.726562 43.0625 15.453125 C 43.019531 15.191406 42.96875 14.929688 42.921875 14.664062 C 43.753906 14.457031 44.527344 14.902344 44.703125 15.753906 C 44.777344 16.125 45.328125 15.964844 45.265625 15.601562 " fill-opacity="1" fill-rule="nonzero"/><path fill="#ffffff" d="M 46.613281 15.671875 C 46.546875 15.105469 46.398438 14.539062 46.273438 13.980469 C 46.148438 13.441406 46.054688 12.867188 45.828125 12.359375 C 45.769531 12.222656 45.574219 12.304688 45.566406 12.429688 C 45.546875 12.964844 45.671875 13.527344 45.753906 14.054688 C 45.839844 14.613281 45.902344 15.199219 46.050781 15.75 C 46.132812 16.050781 46.652344 16 46.613281 15.671875 " fill-opacity="1" fill-rule="nonzero"/><path fill="#ffffff" d="M 45.386719 11.054688 C 45.164062 11.054688 44.984375 11.273438 45.050781 11.507812 C 45.074219 11.59375 45.128906 11.648438 45.199219 11.703125 C 45.222656 11.71875 45.25 11.730469 45.28125 11.734375 C 45.363281 11.78125 45.4375 11.792969 45.578125 11.730469 C 45.632812 11.707031 45.6875 11.644531 45.714844 11.59375 C 45.847656 11.367188 45.660156 11.050781 45.386719 11.054688 " fill-opacity="1" fill-rule="nonzero"/><path fill="#ffffff" d="M 48.8125 13.152344 C 48.648438 12.941406 48.453125 12.769531 48.238281 12.613281 C 48.039062 12.464844 47.691406 12.265625 47.691406 11.980469 C 47.695312 11.636719 48.105469 11.519531 48.371094 11.464844 C 48.476562 11.445312 48.84375 11.382812 48.761719 11.171875 C 48.578125 10.71875 47.800781 10.9375 47.503906 11.15625 C 47.078125 11.460938 46.921875 12.039062 47.207031 12.492188 C 47.492188 12.949219 48.0625 13.132812 48.378906 13.570312 C 48.652344 13.949219 48.8125 14.890625 48.121094 14.964844 C 47.59375 15.019531 47.726562 15.8125 48.21875 15.667969 C 49.351562 15.335938 49.464844 13.976562 48.8125 13.152344 " fill-opacity="1" fill-rule="nonzero"/><path fill="#ffffff" d="M 50.777344 12.261719 C 50.726562 12.003906 50.6875 11.753906 50.503906 11.5625 C 50.375 11.421875 50.234375 11.527344 50.191406 11.652344 C 50.1875 11.652344 50.183594 11.648438 50.179688 11.648438 C 50.09375 11.890625 50.167969 12.164062 50.210938 12.417969 C 50.445312 13.851562 50.476562 14.304688 50.605469 14.984375 C 50.65625 15.257812 51.074219 15.183594 51.078125 14.921875 C 51.089844 14.144531 50.929688 13.011719 50.777344 12.261719 " fill-opacity="1" fill-rule="nonzero"/><path fill="#ffffff" d="M 50.339844 10.214844 C 50.261719 10.15625 50.179688 10.101562 50.074219 10.105469 C 49.945312 10.113281 49.847656 10.179688 49.777344 10.285156 C 49.746094 10.335938 49.738281 10.378906 49.730469 10.433594 C 49.714844 10.535156 49.738281 10.597656 49.785156 10.6875 C 49.839844 10.792969 50.007812 10.851562 50.140625 10.757812 C 50.175781 10.757812 50.207031 10.746094 50.234375 10.734375 C 50.359375 10.679688 50.425781 10.578125 50.433594 10.441406 C 50.433594 10.371094 50.394531 10.261719 50.339844 10.214844 " fill-opacity="1" fill-rule="nonzero"/><path fill="#ffffff" d="M 54.039062 12.5 C 53.742188 12.027344 53.238281 11.894531 52.792969 11.605469 C 52.566406 11.460938 52.402344 11.238281 52.585938 10.980469 C 52.734375 10.769531 53.019531 10.644531 53.21875 10.484375 C 53.269531 10.445312 53.242188 10.375 53.203125 10.34375 C 52.796875 10.035156 52.238281 10.375 52.019531 10.757812 C 51.746094 11.230469 51.921875 11.75 52.332031 12.070312 C 52.734375 12.382812 53.335938 12.503906 53.546875 13.015625 C 53.792969 13.621094 53.375 14.203125 52.75 14.242188 C 52.273438 14.269531 52.28125 15.019531 52.75 14.972656 C 53.933594 14.863281 54.6875 13.542969 54.039062 12.5 " fill-opacity="1" fill-rule="nonzero"/><path fill="#ffffff" d="M 43.136719 23.703125 C 42.964844 22.734375 42.9375 22.226562 42.515625 19.691406 C 42.457031 19.335938 42.4375 18.867188 42.105469 18.65625 C 42.042969 18.613281 41.980469 18.636719 41.9375 18.679688 L 41.9375 18.675781 C 41.699219 18.972656 41.804688 19.375 41.859375 19.722656 C 41.933594 20.164062 42.015625 20.605469 42.085938 21.050781 C 42.070312 21.050781 42.054688 21.050781 42.039062 21.054688 C 41.5625 21.121094 40.957031 21.21875 40.546875 21.519531 C 40.367188 20.628906 40.1875 19.734375 39.964844 18.84375 C 39.894531 18.5625 39.425781 18.613281 39.449219 18.914062 C 39.457031 19.015625 39.453125 19.050781 39.484375 19.109375 C 39.777344 20.566406 39.882812 20.839844 40.015625 21.667969 C 40.136719 22.386719 40.367188 23.214844 40.40625 23.367188 C 40.582031 24.132812 40.488281 24.03125 40.535156 24.175781 C 40.535156 24.195312 40.539062 24.214844 40.539062 24.234375 C 40.550781 24.652344 41.21875 24.535156 41.082031 24.152344 C 41.101562 24.089844 41.097656 24.015625 41.054688 23.925781 C 41.003906 23.8125 40.964844 23.691406 40.929688 23.5625 C 40.800781 22.871094 40.972656 23.691406 40.628906 21.945312 C 41.128906 21.859375 41.59375 21.632812 42.113281 21.59375 C 42.136719 21.59375 42.160156 21.589844 42.179688 21.582031 C 42.316406 22.339844 42.472656 23.09375 42.585938 23.855469 C 42.640625 24.214844 43.203125 24.066406 43.136719 23.703125 " fill-opacity="1" fill-rule="nonzero"/><path fill="#ffffff" d="M 45.175781 23.238281 C 44.558594 23.140625 44.324219 21.621094 44.285156 21.226562 C 44.25 20.859375 44.25 20.484375 44.265625 20.113281 C 44.285156 19.761719 44.265625 19.222656 44.527344 18.945312 C 44.929688 18.523438 45.15625 19.09375 45.269531 19.417969 C 45.53125 20.160156 45.773438 21.1875 45.78125 21.976562 C 45.785156 22.496094 45.691406 23.324219 45.175781 23.238281 Z M 46.191406 21.03125 C 46.082031 20.316406 45.902344 19.597656 45.625 18.929688 C 45.453125 18.511719 45.117188 18.191406 44.632812 18.304688 C 43.503906 18.558594 43.601562 20.359375 43.695312 21.226562 C 43.761719 21.808594 43.910156 22.382812 44.195312 22.894531 C 44.308594 23.101562 44.660156 23.671875 44.964844 23.609375 C 44.992188 23.628906 45.019531 23.644531 45.058594 23.652344 C 45.597656 23.789062 45.976562 23.332031 46.140625 22.871094 C 46.351562 22.277344 46.28125 21.636719 46.191406 21.03125 " fill-opacity="1" fill-rule="nonzero"/><path fill="#ffffff" d="M 48.988281 17.691406 C 48.566406 17.714844 48.140625 17.820312 47.726562 17.898438 C 47.289062 17.976562 46.84375 18.046875 46.425781 18.203125 C 46.199219 18.285156 46.222656 18.628906 46.484375 18.632812 C 46.882812 18.644531 47.285156 18.578125 47.683594 18.515625 C 47.59375 19.304688 47.742188 20.128906 47.820312 20.914062 C 47.863281 21.371094 47.90625 21.832031 47.949219 22.289062 C 47.984375 22.605469 47.945312 23.066406 48.164062 23.320312 C 48.226562 23.390625 48.335938 23.410156 48.425781 23.386719 C 48.554688 23.351562 48.617188 23.28125 48.664062 23.152344 C 48.691406 23.078125 48.414062 20.960938 48.382812 20.550781 C 48.332031 19.855469 48.324219 19.121094 48.121094 18.449219 C 48.441406 18.40625 48.765625 18.363281 49.066406 18.277344 C 49.382812 18.1875 49.332031 17.671875 48.988281 17.691406 " fill-opacity="1" fill-rule="nonzero"/><path fill="#ffffff" d="M 52.007812 21.996094 C 51.769531 22.046875 51.527344 22.070312 51.292969 22.144531 C 51.140625 22.191406 50.992188 22.273438 50.839844 22.332031 C 50.808594 22.171875 50.824219 21.835938 50.820312 21.765625 C 50.761719 20.390625 50.710938 19.246094 50.617188 18.4375 C 50.578125 18.078125 50.597656 17.609375 50.351562 17.332031 C 50.292969 17.261719 50.191406 17.292969 50.148438 17.355469 C 49.988281 17.582031 50.023438 17.878906 50.019531 18.148438 C 50.003906 19.074219 50.113281 20.40625 50.1875 21.261719 C 50.289062 22.460938 50.277344 22.628906 50.445312 22.808594 C 50.582031 22.957031 50.761719 22.972656 50.953125 22.925781 C 51.316406 22.835938 51.609375 22.601562 52.007812 22.65625 C 52.574219 22.734375 52.542969 21.890625 52.007812 21.996094 " fill-opacity="1" fill-rule="nonzero"/><path fill="#ffffff" d="M 54.0625 22.15625 C 53.964844 21.03125 53.824219 19.703125 53.621094 18.585938 C 53.558594 18.25 53.511719 17.863281 53.277344 17.59375 C 53.253906 17.5625 52.832031 17.65625 52.835938 17.699219 C 53.0625 19.738281 53.222656 19.859375 53.363281 22.15625 C 53.390625 22.605469 54.101562 22.601562 54.0625 22.15625 " fill-opacity="1" fill-rule="nonzero"/><path fill="#ffffff" d="M 53.308594 16.519531 C 53.257812 16.1875 52.945312 16.136719 52.777344 16.386719 C 52.527344 16.574219 52.605469 16.933594 52.96875 17.046875 C 53.09375 17.085938 53.273438 17 53.296875 16.863281 C 53.304688 16.8125 53.308594 16.753906 53.3125 16.699219 C 53.332031 16.636719 53.332031 16.574219 53.308594 16.519531 " fill-opacity="1" fill-rule="nonzero"/><path fill="#ffffff" d="M 57.925781 17.195312 C 57.878906 16.746094 57.179688 16.726562 57.207031 17.195312 C 57.285156 18.628906 57.414062 18.792969 57.34375 20.777344 C 56.808594 19.5 56.195312 18.277344 55.386719 17.125 C 55.214844 16.878906 54.800781 16.953125 54.800781 17.28125 C 54.796875 18.070312 54.804688 18.855469 54.832031 19.644531 C 54.855469 20.398438 54.871094 21.171875 55.007812 21.921875 C 55.054688 22.195312 55.453125 22.109375 55.46875 21.859375 C 55.527344 20.925781 55.4375 20.558594 55.425781 18.304688 C 56.1875 19.480469 56.863281 20.738281 57.296875 22.050781 C 57.394531 22.34375 57.769531 22.265625 57.804688 21.984375 C 57.90625 21.191406 57.941406 20.386719 57.953125 19.589844 C 57.960938 18.804688 58.003906 17.976562 57.925781 17.195312 " fill-opacity="1" fill-rule="nonzero"/><path fill="#ffffff" d="M 61.320312 21.132812 C 61.003906 21.203125 60.683594 21.25 60.363281 21.304688 C 60.167969 21.335938 59.941406 21.410156 59.726562 21.4375 C 59.722656 21.335938 59.734375 21.21875 59.734375 21.152344 C 59.734375 20.960938 59.71875 20.183594 59.71875 19.988281 C 59.867188 20.066406 60.058594 20.078125 60.226562 20.082031 C 60.488281 20.082031 60.855469 20.078125 61.070312 19.917969 C 61.28125 19.761719 61.3125 19.34375 60.988281 19.289062 C 60.730469 19.242188 60.484375 19.328125 60.226562 19.347656 C 60.054688 19.359375 59.859375 19.351562 59.703125 19.425781 C 59.683594 18.785156 59.671875 18.136719 59.613281 17.5 C 59.804688 17.503906 59.988281 17.464844 60.203125 17.429688 C 60.519531 17.382812 60.894531 17.429688 61.132812 17.183594 C 61.289062 17.023438 61.238281 16.789062 61.066406 16.671875 C 60.601562 16.347656 59.308594 16.773438 59.175781 17.25 C 59.171875 17.265625 59.171875 17.28125 59.171875 17.296875 C 59.066406 18.523438 59.117188 19.777344 59.132812 21.007812 C 59.140625 21.390625 59.035156 22.015625 59.5625 22.074219 C 59.820312 22.105469 60.148438 22.007812 60.40625 21.96875 C 60.738281 21.921875 61.078125 21.863281 61.414062 21.832031 C 61.929688 21.789062 61.828125 21.015625 61.320312 21.132812 " fill-opacity="1" fill-rule="nonzero"/></svg>