<svg xmlns="http://www.w3.org/2000/svg" xmlns:xlink="http://www.w3.org/1999/xlink" width="145" zoomAndPan="magnify" viewBox="0 0 108.75 44.999999" height="60" preserveAspectRatio="xMidYMid meet" version="1.0"><defs><clipPath id="1156555859"><path d="M 0 0.0507812 L 108.5 0.0507812 L 108.5 44.949219 L 0 44.949219 Z M 0 0.0507812 " clip-rule="nonzero"/></clipPath><clipPath id="0049f46731"><path d="M 36.824219 35 L 69 35 L 69 43.574219 L 36.824219 43.574219 Z M 36.824219 35 " clip-rule="nonzero"/></clipPath><clipPath id="40d455da61"><path d="M 36.824219 35 L 68 35 L 68 42 L 36.824219 42 Z M 36.824219 35 " clip-rule="nonzero"/></clipPath><clipPath id="685e78cca3"><path d="M 53 1.671875 L 55 1.671875 L 55 8 L 53 8 Z M 53 1.671875 " clip-rule="nonzero"/></clipPath></defs><g clip-path="url(#1156555859)"><path fill="#ffffff" d="M 0 0.0507812 L 108.5 0.0507812 L 108.5 44.949219 L 0 44.949219 Z M 0 0.0507812 " fill-opacity="1" fill-rule="nonzero"/><path fill="#f6e2e2" d="M 0 0.0507812 L 108.5 0.0507812 L 108.5 44.949219 L 0 44.949219 Z M 0 0.0507812 " fill-opacity="1" fill-rule="nonzero"/></g><path fill="#d30707" d="M 64.707031 35.515625 L 40.636719 37.320312 L 40.660156 35.648438 L 40.691406 33.558594 L 40.875 17.910156 C 40.90625 14.816406 43.308594 12.253906 46.382812 12.027344 L 55.253906 11.355469 C 55.6875 11.328125 56.113281 11.335938 56.519531 11.402344 C 57.4375 11.527344 58.300781 11.863281 59.039062 12.367188 C 60.359375 13.257812 61.308594 14.675781 61.582031 16.351562 Z M 64.707031 35.515625 " fill-opacity="1" fill-rule="nonzero"/><path fill="#f04343" d="M 59.921875 34.210938 L 40.660156 35.648438 L 40.691406 33.558594 L 40.875 17.910156 C 40.90625 14.816406 43.308594 12.253906 46.382812 12.027344 L 55.253906 11.355469 C 55.6875 11.328125 56.113281 11.335938 56.519531 11.402344 C 57.4375 11.527344 58.300781 11.863281 59.039062 12.367188 L 62.140625 31.390625 C 62.371094 32.800781 61.347656 34.097656 59.921875 34.210938 Z M 59.921875 34.210938 " fill-opacity="1" fill-rule="nonzero"/><path fill="#ff6161" d="M 57.210938 32.320312 L 40.6875 33.558594 L 40.875 17.910156 C 40.910156 14.8125 43.308594 12.253906 46.386719 12.023438 L 55.253906 11.359375 C 55.6875 11.324219 56.109375 11.335938 56.523438 11.398438 C 56.742188 11.875 56.902344 12.394531 56.988281 12.941406 L 59.640625 29.226562 C 59.894531 30.773438 58.769531 32.203125 57.210938 32.320312 Z M 57.210938 32.320312 " fill-opacity="1" fill-rule="nonzero"/><g clip-path="url(#0049f46731)"><path fill="#ffa20d" d="M 68.78125 37.609375 L 68.972656 40.203125 C 69.011719 40.738281 68.613281 41.203125 68.078125 41.242188 L 38.15625 43.488281 C 37.621094 43.527344 37.15625 43.125 37.113281 42.59375 L 36.921875 40 C 36.820312 38.683594 37.808594 37.535156 39.132812 37.433594 L 66.21875 35.402344 C 66.496094 35.382812 66.761719 35.40625 67.011719 35.480469 C 67.964844 35.730469 68.703125 36.5625 68.78125 37.609375 Z M 68.78125 37.609375 " fill-opacity="1" fill-rule="nonzero"/></g><g clip-path="url(#40d455da61)"><path fill="#ffca6c" d="M 67.125 36.035156 L 67.316406 38.621094 C 67.355469 39.15625 66.957031 39.625 66.421875 39.664062 L 37.058594 41.867188 L 36.921875 40 C 36.820312 38.683594 37.808594 37.535156 39.132812 37.433594 L 66.21875 35.402344 C 66.496094 35.382812 66.761719 35.40625 67.011719 35.480469 C 67.074219 35.652344 67.109375 35.84375 67.125 36.035156 Z M 67.125 36.035156 " fill-opacity="1" fill-rule="nonzero"/></g><path fill="#ffffff" d="M 52.671875 16.976562 L 52.640625 25.921875 C 52.640625 26.351562 52.292969 26.695312 51.863281 26.695312 C 51.480469 26.695312 51.164062 26.414062 51.101562 26.046875 L 49.617188 17.230469 C 49.476562 16.390625 50.039062 15.597656 50.878906 15.457031 C 51.796875 15.300781 52.667969 15.996094 52.671875 16.976562 Z M 52.671875 16.976562 " fill-opacity="1" fill-rule="nonzero"/><path fill="#ffffff" d="M 53.402344 29.171875 C 53.457031 29.867188 52.9375 30.472656 52.242188 30.53125 C 51.554688 30.585938 50.941406 30.074219 50.882812 29.378906 C 50.828125 28.683594 51.347656 28.078125 52.035156 28.019531 C 52.730469 27.964844 53.34375 28.476562 53.402344 29.171875 Z M 53.402344 29.171875 " fill-opacity="1" fill-rule="nonzero"/><path fill="#ffffff" d="M 60.292969 16.910156 C 60.554688 17.875 60.539062 18.640625 60.390625 19.085938 C 60.3125 19.332031 60.167969 19.476562 60.003906 19.167969 C 59.832031 18.863281 59.699219 18.257812 59.550781 17.738281 C 59.15625 16.257812 58.375 14.695312 57.878906 13.558594 C 57.285156 12.257812 59.519531 13.9375 60.292969 16.910156 Z M 60.292969 16.910156 " fill-opacity="1" fill-rule="nonzero"/><path fill="#ffffff" d="M 48.703125 39.992188 C 52.589844 39.417969 56.949219 39.136719 59.785156 38.925781 C 61.386719 38.800781 63.519531 38.960938 65.824219 36.777344 C 64.902344 37.949219 63.546875 38.796875 62.054688 39.132812 C 61.066406 39.382812 53.011719 39.980469 48.703125 39.992188 Z M 48.703125 39.992188 " fill-opacity="1" fill-rule="nonzero"/><path fill="#ffa20d" d="M 41.550781 11.710938 L 37.828125 8.480469 C 37.652344 8.328125 37.632812 8.066406 37.785156 7.890625 C 37.9375 7.714844 38.203125 7.695312 38.375 7.847656 L 42.097656 11.078125 C 42.273438 11.230469 42.292969 11.496094 42.140625 11.667969 C 41.988281 11.84375 41.726562 11.863281 41.550781 11.710938 Z M 41.550781 11.710938 " fill-opacity="1" fill-rule="nonzero"/><path fill="#ffa20d" d="M 46.816406 7.816406 L 45.117188 3.1875 C 45.039062 2.96875 45.148438 2.726562 45.367188 2.648438 C 45.582031 2.566406 45.824219 2.679688 45.90625 2.898438 L 47.601562 7.527344 C 47.683594 7.746094 47.570312 7.988281 47.351562 8.066406 C 47.140625 8.144531 46.898438 8.039062 46.816406 7.816406 Z M 46.816406 7.816406 " fill-opacity="1" fill-rule="nonzero"/><g clip-path="url(#685e78cca3)"><path fill="#ffa20d" d="M 53.484375 7.414062 C 53.253906 7.378906 53.09375 7.167969 53.128906 6.9375 L 53.8125 2.054688 C 53.84375 1.824219 54.054688 1.660156 54.285156 1.699219 C 54.515625 1.730469 54.675781 1.941406 54.640625 2.171875 L 53.957031 7.054688 C 53.925781 7.289062 53.703125 7.449219 53.484375 7.414062 Z M 53.484375 7.414062 " fill-opacity="1" fill-rule="nonzero"/></g><path fill="#ffa20d" d="M 59.328125 9.828125 C 59.148438 9.683594 59.117188 9.417969 59.265625 9.238281 C 60.277344 7.980469 60.820312 7.226562 61.34375 6.496094 C 61.613281 6.121094 61.882812 5.746094 62.214844 5.304688 C 62.351562 5.121094 62.613281 5.082031 62.800781 5.222656 C 62.984375 5.363281 63.023438 5.625 62.882812 5.808594 C 62.558594 6.246094 62.292969 6.617188 62.023438 6.988281 C 61.492188 7.726562 60.945312 8.492188 59.917969 9.765625 C 59.769531 9.945312 59.507812 9.972656 59.328125 9.828125 Z M 59.328125 9.828125 " fill-opacity="1" fill-rule="nonzero"/><path fill="#ffffff" d="M 45.890625 16.390625 C 45.511719 17.890625 44.039062 18.601562 43.480469 18.328125 C 42.71875 17.960938 42.78125 16 43.730469 15.304688 C 44.898438 14.457031 46.246094 15 45.890625 16.390625 Z M 45.890625 16.390625 " fill-opacity="0.48" fill-rule="nonzero"/><path fill="#ffffff" d="M 44.941406 19.859375 C 44.949219 20.871094 43.941406 21.957031 43.609375 20.96875 C 43.097656 19.457031 44.933594 18.558594 44.941406 19.859375 Z M 44.941406 19.859375 " fill-opacity="0.48" fill-rule="nonzero"/></svg>