<svg xmlns="http://www.w3.org/2000/svg" xmlns:xlink="http://www.w3.org/1999/xlink" width="145" zoomAndPan="magnify" viewBox="0 0 108.75 44.999999" height="60" preserveAspectRatio="xMidYMid meet" version="1.0"><defs><clipPath id="898f259cdd"><path d="M 0 0.0507812 L 108.5 0.0507812 L 108.5 44.949219 L 0 44.949219 Z M 0 0.0507812 " clip-rule="nonzero"/></clipPath><clipPath id="9458787924"><path d="M 6.78125 4.875 L 28 4.875 L 28 40.792969 L 6.78125 40.792969 Z M 6.78125 4.875 " clip-rule="nonzero"/></clipPath><clipPath id="fd5d784374"><path d="M 12 4.875 L 21 4.875 L 21 26 L 12 26 Z M 12 4.875 " clip-rule="nonzero"/></clipPath><clipPath id="b6da562020"><path d="M 19 25 L 102.558594 25 L 102.558594 40.792969 L 19 40.792969 Z M 19 25 " clip-rule="nonzero"/></clipPath></defs><g clip-path="url(#898f259cdd)"><path fill="#ffffff" d="M 0 0.0507812 L 108.5 0.0507812 L 108.5 44.949219 L 0 44.949219 Z M 0 0.0507812 " fill-opacity="1" fill-rule="nonzero"/><path fill="#f8e4f0" d="M 0 0.0507812 L 108.5 0.0507812 L 108.5 44.949219 L 0 44.949219 Z M 0 0.0507812 " fill-opacity="1" fill-rule="nonzero"/></g><g clip-path="url(#9458787924)"><path fill="#4e298a" d="M 20.054688 4.875 L 20.050781 4.875 L 20.050781 10.617188 L 20.054688 10.617188 C 22.097656 10.617188 23.492188 11.273438 24.199219 11.714844 C 23.820312 13.476562 22.53125 15.976562 20.761719 18.792969 C 20.761719 18.792969 20.757812 18.800781 20.746094 18.8125 C 20.746094 18.816406 20.742188 18.820312 20.738281 18.824219 C 20.636719 18.972656 20.210938 19.597656 19.617188 20.453125 C 18.691406 21.792969 17.371094 23.703125 16.304688 25.214844 C 16.3125 25.226562 16.320312 25.238281 16.328125 25.253906 C 15.890625 25.847656 15.449219 26.441406 15.003906 27.035156 C 14.933594 27.132812 14.867188 27.21875 14.8125 27.292969 C 11.957031 31.085938 9.011719 34.738281 6.820312 37.425781 L 10.464844 36.871094 L 10.480469 40.792969 C 12.640625 38.21875 15.25 34.96875 17.785156 31.597656 C 17.785156 31.597656 17.789062 31.59375 17.789062 31.59375 C 18.226562 31.007812 18.664062 30.421875 19.097656 29.832031 C 19.105469 29.847656 19.117188 29.859375 19.125 29.875 C 20.09375 28.550781 21.371094 26.707031 22.496094 25.03125 C 22.492188 25.027344 22.492188 25.023438 22.488281 25.015625 C 23.40625 23.648438 24.253906 22.320312 24.988281 21.070312 C 24.992188 21.070312 24.992188 21.066406 24.992188 21.066406 C 26.757812 18.082031 27.894531 15.550781 27.894531 14.007812 C 27.894531 11.464844 26.003906 4.875 20.054688 4.875 Z M 19.617188 20.453125 C 19.628906 20.472656 19.640625 20.488281 19.652344 20.507812 C 20.03125 19.9375 20.394531 19.375 20.738281 18.824219 C 20.636719 18.972656 20.210938 19.597656 19.617188 20.453125 " fill-opacity="1" fill-rule="nonzero"/></g><g clip-path="url(#fd5d784374)"><path fill="#50c5c7" d="M 20.050781 10.617188 C 18.003906 10.617188 16.605469 11.28125 15.90625 11.71875 C 16.285156 13.761719 17.6875 17.039062 19.617188 20.453125 C 18.691406 21.792969 17.371094 23.703125 16.304688 25.214844 C 13.785156 20.519531 12.21875 15.960938 12.21875 14.007812 C 12.21875 11.46875 14.105469 4.878906 20.050781 4.875 L 20.050781 10.617188 " fill-opacity="1" fill-rule="nonzero"/></g><g clip-path="url(#b6da562020)"><path fill="#50c5c7" d="M 99.871094 36.917969 L 102.519531 40.027344 L 92.984375 40.027344 C 90.242188 40.027344 83.25 33.109375 80.132812 29.871094 C 76.710938 32.996094 69.3125 39.511719 67.050781 39.511719 L 60.515625 39.511719 C 58.597656 39.511719 52.199219 33.066406 49.101562 29.824219 C 45.628906 32.945312 38.5625 38.980469 35.875 38.980469 L 31.246094 38.980469 C 26.839844 38.980469 22.53125 34.84375 19.125 29.875 C 20.09375 28.550781 21.371094 26.707031 22.496094 25.03125 C 25.824219 29.804688 29.796875 33.839844 32.960938 33.839844 C 35.730469 33.839844 43.460938 25.917969 44.894531 25.917969 L 53.304688 25.917969 C 54.757812 25.917969 60.964844 32.105469 64.03125 35.253906 C 67.777344 32.105469 75.300781 25.917969 76.628906 25.917969 L 83.960938 25.917969 C 85.398438 25.917969 92.710938 33.996094 93.980469 33.996094 C 95.902344 33.996094 102.519531 33.996094 102.519531 33.996094 L 99.871094 36.917969 " fill-opacity="1" fill-rule="nonzero"/></g></svg>